<?xml version="1.0" encoding="utf-8"?>
<!-- Generator: Adobe Illustrator 25.4.1, SVG Export Plug-In . SVG Version: 6.00 Build 0)  -->
<svg version="1.1" id="Layer_4" xmlns="http://www.w3.org/2000/svg" xmlns:xlink="http://www.w3.org/1999/xlink" x="0px" y="0px"
	 width="820px" height="558.575px" viewBox="0 0 820 558.575" style="enable-background:new 0 0 820 558.575;" xml:space="preserve"
	>
<style type="text/css">
	.st0{fill:#333333;}
	.st1{fill:#FFFFFF;}
	.st2{fill:url(#SVGID_1_);}
	.st3{fill:url(#SVGID_00000163788732906034883290000005042763759580117392_);}
	.st4{fill:url(#SVGID_00000096060537475990938570000010858996195986211232_);}
	.st5{fill:url(#SVGID_00000177475984039554327950000016631790244072793743_);}
	.st6{fill:url(#SVGID_00000081641219357944158330000007152249865654334609_);}
	.st7{fill:url(#SVGID_00000115484125940845707520000003082210984659298709_);}
</style>
<circle class="st0" cx="415.621" cy="278.001" r="139.659"/>
<g>
	<circle class="st1" cx="563.958" cy="195.344" r="64.566"/>
	<linearGradient id="SVGID_1_" gradientUnits="userSpaceOnUse" x1="496.0957" y1="195.3435" x2="631.8203" y2="195.3435">
		<stop  offset="0" style="stop-color:#00B4E5"/>
		<stop  offset="1" style="stop-color:#1CD0BB"/>
	</linearGradient>
	<path class="st2" d="M563.958,263.205c-37.419,0-67.862-30.442-67.862-67.861s30.443-67.862,67.862-67.862
		s67.862,30.443,67.862,67.862S601.377,263.205,563.958,263.205z M563.958,134.073c-33.785,0-61.271,27.486-61.271,61.271
		s27.485,61.271,61.271,61.271s61.271-27.486,61.271-61.271S597.743,134.073,563.958,134.073z"/>
</g>
<g>
	<circle class="st1" cx="415.621" cy="98.467" r="64.566"/>
	
		<linearGradient id="SVGID_00000127035147328350184420000015026545413208184449_" gradientUnits="userSpaceOnUse" x1="347.7593" y1="98.4673" x2="483.4834" y2="98.4673">
		<stop  offset="0" style="stop-color:#00B4E5"/>
		<stop  offset="1" style="stop-color:#1CD0BB"/>
	</linearGradient>
	<path style="fill:url(#SVGID_00000127035147328350184420000015026545413208184449_);" d="M415.621,166.329
		c-37.419,0-67.862-30.443-67.862-67.862s30.443-67.862,67.862-67.862s67.862,30.443,67.862,67.862S453.04,166.329,415.621,166.329z
		 M415.621,37.196c-33.785,0-61.271,27.486-61.271,61.271s27.486,61.271,61.271,61.271c33.785,0,61.271-27.486,61.271-61.271
		S449.406,37.196,415.621,37.196z"/>
</g>
<g>
	<circle class="st1" cx="415.621" cy="450.977" r="64.566"/>
	
		<linearGradient id="SVGID_00000129206562007490467370000015214031929487886473_" gradientUnits="userSpaceOnUse" x1="347.7593" y1="450.9771" x2="483.4834" y2="450.9771">
		<stop  offset="0" style="stop-color:#00B4E5"/>
		<stop  offset="1" style="stop-color:#1CD0BB"/>
	</linearGradient>
	<path style="fill:url(#SVGID_00000129206562007490467370000015214031929487886473_);" d="M415.621,518.839
		c-37.419,0-67.862-30.443-67.862-67.862s30.443-67.861,67.862-67.861s67.862,30.442,67.862,67.861S453.04,518.839,415.621,518.839z
		 M415.621,389.706c-33.785,0-61.271,27.486-61.271,61.271c0,33.785,27.486,61.271,61.271,61.271
		c33.785,0,61.271-27.485,61.271-61.271C476.892,417.192,449.406,389.706,415.621,389.706z"/>
</g>
<g>
	<circle class="st1" cx="563.958" cy="365.147" r="64.566"/>
	
		<linearGradient id="SVGID_00000129180721701417303920000017533957260237634458_" gradientUnits="userSpaceOnUse" x1="496.0957" y1="365.1467" x2="631.8203" y2="365.1467">
		<stop  offset="0" style="stop-color:#00B4E5"/>
		<stop  offset="1" style="stop-color:#1CD0BB"/>
	</linearGradient>
	<path style="fill:url(#SVGID_00000129180721701417303920000017533957260237634458_);" d="M563.958,433.009
		c-37.419,0-67.862-30.443-67.862-67.862s30.443-67.862,67.862-67.862s67.862,30.443,67.862,67.862S601.377,433.009,563.958,433.009
		z M563.958,303.875c-33.785,0-61.271,27.486-61.271,61.271s27.485,61.271,61.271,61.271s61.271-27.486,61.271-61.271
		S597.743,303.875,563.958,303.875z"/>
</g>
<g>
	<circle class="st1" cx="267.901" cy="195.344" r="64.566"/>
	
		<linearGradient id="SVGID_00000084492311578895544330000006845394660754243220_" gradientUnits="userSpaceOnUse" x1="200.0396" y1="195.3435" x2="335.7627" y2="195.3435">
		<stop  offset="0" style="stop-color:#00B4E5"/>
		<stop  offset="1" style="stop-color:#1CD0BB"/>
	</linearGradient>
	<path style="fill:url(#SVGID_00000084492311578895544330000006845394660754243220_);" d="M267.901,263.205
		c-37.419,0-67.861-30.442-67.861-67.861s30.442-67.862,67.861-67.862s67.862,30.443,67.862,67.862S305.32,263.205,267.901,263.205z
		 M267.901,134.073c-33.785,0-61.271,27.486-61.271,61.271s27.486,61.271,61.271,61.271s61.271-27.486,61.271-61.271
		S301.686,134.073,267.901,134.073z"/>
</g>
<g>
	<circle class="st1" cx="267.901" cy="365.147" r="64.566"/>
	
		<linearGradient id="SVGID_00000160175232109984057780000008229234173784109487_" gradientUnits="userSpaceOnUse" x1="200.0396" y1="365.1467" x2="335.7627" y2="365.1467">
		<stop  offset="0" style="stop-color:#00B4E5"/>
		<stop  offset="1" style="stop-color:#1CD0BB"/>
	</linearGradient>
	<path style="fill:url(#SVGID_00000160175232109984057780000008229234173784109487_);" d="M267.901,433.009
		c-37.419,0-67.861-30.443-67.861-67.862s30.442-67.862,67.861-67.862s67.862,30.443,67.862,67.862S305.32,433.009,267.901,433.009z
		 M267.901,303.875c-33.785,0-61.271,27.486-61.271,61.271s27.486,61.271,61.271,61.271s61.271-27.486,61.271-61.271
		S301.686,303.875,267.901,303.875z"/>
</g>
<g>
	<g>
		<path class="st1" d="M319.528,300.92l2.101-2.516c1.454,1.2,2.978,1.962,4.825,1.962c1.454,0,2.332-0.577,2.332-1.524v-0.046
			c0-0.9-0.554-1.362-3.255-2.055c-3.255-0.831-5.356-1.731-5.356-4.94v-0.046c0-2.932,2.355-4.872,5.656-4.872
			c2.355,0,4.363,0.739,6.002,2.055l-1.847,2.678c-1.432-0.993-2.84-1.593-4.202-1.593c-1.362,0-2.078,0.623-2.078,1.408v0.046
			c0,1.062,0.692,1.408,3.486,2.124c3.278,0.854,5.125,2.032,5.125,4.848v0.046c0,3.209-2.447,5.01-5.933,5.01
			C323.938,303.506,321.467,302.652,319.528,300.92z"/>
		<path class="st1" d="M336.592,296.35v-9.235h3.555v9.142c0,2.632,1.316,3.994,3.486,3.994c2.17,0,3.486-1.316,3.486-3.878v-9.258
			h3.555v9.119c0,4.895-2.747,7.295-7.087,7.295S336.592,301.105,336.592,296.35z"/>
		<path class="st1" d="M355.734,287.115h6.603c3.855,0,6.187,2.286,6.187,5.587v0.046c0,3.74-2.909,5.679-6.533,5.679h-2.701v4.848
			h-3.555V287.115z M362.106,295.264c1.778,0,2.817-1.062,2.817-2.447v-0.046c0-1.593-1.108-2.447-2.886-2.447h-2.747v4.94H362.106z
			"/>
		<path class="st1" d="M372.591,287.115h6.603c3.855,0,6.187,2.286,6.187,5.587v0.046c0,3.74-2.909,5.679-6.533,5.679h-2.701v4.848
			h-3.555V287.115z M378.962,295.264c1.778,0,2.817-1.062,2.817-2.447v-0.046c0-1.593-1.108-2.447-2.886-2.447h-2.747v4.94H378.962z
			"/>
		<path class="st1" d="M389.447,287.115h3.555v12.929h8.057v3.232h-11.612V287.115z"/>
		<path class="st1" d="M406.718,296.903l-6.21-9.789h4.156l3.855,6.487l3.924-6.487h4.041l-6.211,9.72v6.441h-3.555V296.903z"/>
		<path class="st1" d="M427.777,295.241v-0.046c0-4.594,3.463-8.357,8.427-8.357c3.047,0,4.871,1.016,6.372,2.493l-2.263,2.609
			c-1.247-1.131-2.517-1.824-4.133-1.824c-2.724,0-4.687,2.262-4.687,5.033v0.046c0,2.77,1.916,5.079,4.687,5.079
			c1.847,0,2.979-0.739,4.248-1.893l2.263,2.286c-1.662,1.778-3.51,2.886-6.626,2.886
			C431.31,303.552,427.777,299.882,427.777,295.241z"/>
		<path class="st1" d="M446.966,287.115h3.555v6.395h6.557v-6.395h3.556v16.161h-3.556v-6.487h-6.557v6.487h-3.555V287.115z"/>
		<path class="st1" d="M471.487,287h3.278l6.926,16.276h-3.717l-1.478-3.625h-6.834l-1.478,3.625h-3.625L471.487,287z
			 M475.227,296.511l-2.146-5.241l-2.147,5.241H475.227z"/>
		<path class="st1" d="M485.781,287.115h3.556v16.161h-3.556V287.115z"/>
		<path class="st1" d="M494.81,287.115h3.278l7.572,9.95v-9.95h3.509v16.161h-3.024l-7.826-10.273v10.273h-3.509V287.115z"/>
		<path class="st1" d="M348.113,314.708h3.278l6.926,16.276H354.6l-1.478-3.625h-6.833l-1.478,3.625h-3.625L348.113,314.708z
			 M351.853,324.22l-2.147-5.241l-2.147,5.241H351.853z"/>
		<path class="st1" d="M362.246,314.824h3.278l7.572,9.95v-9.95h3.509v16.161h-3.024l-7.827-10.273v10.273h-3.509V314.824z"/>
		<path class="st1" d="M387.459,314.708h3.278l6.926,16.276h-3.717l-1.478-3.625h-6.833l-1.478,3.625h-3.625L387.459,314.708z
			 M391.2,324.22l-2.147-5.241l-2.147,5.241H391.2z"/>
		<path class="st1" d="M401.592,314.824h3.555v12.929h8.058v3.232h-11.613V314.824z"/>
		<path class="st1" d="M418.863,324.612l-6.21-9.789h4.155l3.855,6.487l3.925-6.487h4.04l-6.21,9.72v6.441h-3.556V324.612z"/>
		<path class="st1" d="M436.043,318.102h-4.917v-3.278h13.39v3.278h-4.917v12.882h-3.556V318.102z"/>
		<path class="st1" d="M448.835,314.824h3.556v16.161h-3.556V314.824z"/>
		<path class="st1" d="M457.148,322.95v-0.046c0-4.594,3.463-8.357,8.427-8.357c3.047,0,4.871,1.016,6.372,2.493l-2.263,2.609
			c-1.247-1.131-2.517-1.824-4.133-1.824c-2.724,0-4.687,2.262-4.687,5.033v0.046c0,2.77,1.916,5.079,4.687,5.079
			c1.847,0,2.979-0.739,4.248-1.893l2.263,2.286c-1.662,1.778-3.51,2.886-6.626,2.886
			C460.681,331.261,457.148,327.591,457.148,322.95z"/>
		<path class="st1" d="M475.229,328.629l2.101-2.516c1.455,1.2,2.979,1.962,4.825,1.962c1.455,0,2.332-0.577,2.332-1.524v-0.046
			c0-0.9-0.554-1.362-3.255-2.055c-3.256-0.831-5.356-1.731-5.356-4.94v-0.046c0-2.932,2.354-4.872,5.656-4.872
			c2.354,0,4.363,0.739,6.003,2.055l-1.848,2.678c-1.431-0.993-2.84-1.593-4.201-1.593c-1.362,0-2.078,0.623-2.078,1.408v0.046
			c0,1.062,0.692,1.408,3.486,2.124c3.278,0.854,5.125,2.032,5.125,4.848v0.046c0,3.209-2.447,5.01-5.934,5.01
			C479.638,331.215,477.168,330.361,475.229,328.629z"/>
	</g>
</g>
<g>
	<g>
		<path class="st0" d="M316.037,7.565h1.757v9.998h-1.757V7.565z"/>
		<path class="st0" d="M320.393,7.565h1.628l5.356,6.913V7.565h1.728v9.998h-1.471l-5.513-7.112v7.112h-1.728V7.565z"/>
		<path class="st0" d="M330.746,7.565h1.942l3.013,7.684l3-7.684h1.899l-4.142,10.069h-1.557L330.746,7.565z"/>
		<path class="st0" d="M342.241,7.565h7.413v1.571h-5.656v2.6h5.013v1.571h-5.013v2.685h5.728v1.571h-7.484V7.565z"/>
		<path class="st0" d="M351.738,7.565h1.628l5.356,6.913V7.565h1.728v9.998h-1.471l-5.513-7.112v7.112h-1.728V7.565z"/>
		<path class="st0" d="M365.404,9.193h-3.17V7.565h8.112v1.628h-3.17v8.369h-1.771V9.193z"/>
		<path class="st0" d="M371.688,12.592v-0.029c0-2.813,2.171-5.17,5.241-5.17c3.071,0,5.213,2.328,5.213,5.142v0.028
			c0,2.814-2.171,5.17-5.242,5.17S371.688,15.406,371.688,12.592z M380.3,12.592v-0.029c0-1.942-1.414-3.556-3.399-3.556
			s-3.371,1.585-3.371,3.528v0.028c0,1.942,1.414,3.542,3.399,3.542C378.914,16.105,380.3,14.535,380.3,12.592z"/>
		<path class="st0" d="M384.197,7.565h4.456c1.257,0,2.242,0.372,2.885,1c0.528,0.543,0.828,1.286,0.828,2.157v0.029
			c0,1.643-0.985,2.628-2.371,3.028l2.699,3.785h-2.085l-2.457-3.485h-2.2v3.485h-1.756V7.565z M388.524,12.521
			c1.257,0,2.057-0.657,2.057-1.671v-0.028c0-1.071-0.771-1.657-2.071-1.657h-2.557v3.356H388.524z"/>
		<path class="st0" d="M397.393,13.621l-3.971-6.056h2.085l2.785,4.413l2.828-4.413h2.014l-3.97,6.013v3.985h-1.771V13.621z"/>
		<path class="st0" d="M408.816,7.565h1.871l3.042,4.728l3.042-4.728h1.871v9.998h-1.757v-7.17l-3.156,4.713h-0.058l-3.127-4.685
			v7.141h-1.728V7.565z"/>
		<path class="st0" d="M424.682,7.494h1.629l4.398,10.069h-1.856l-1.015-2.414h-4.727l-1.029,2.414h-1.799L424.682,7.494z
			 M427.195,13.592l-1.728-3.999l-1.714,3.999H427.195z"/>
		<path class="st0" d="M432.35,7.565h1.629l5.355,6.913V7.565h1.729v9.998h-1.472l-5.513-7.112v7.112h-1.729V7.565z"/>
		<path class="st0" d="M447.102,7.494h1.629l4.398,10.069h-1.856l-1.015-2.414h-4.727l-1.029,2.414h-1.799L447.102,7.494z
			 M449.615,13.592l-1.728-3.999l-1.714,3.999H449.615z"/>
		<path class="st0" d="M454.328,12.592v-0.029c0-2.799,2.143-5.17,5.156-5.17c1.742,0,2.813,0.485,3.842,1.357l-1.114,1.328
			c-0.771-0.657-1.528-1.071-2.8-1.071c-1.842,0-3.242,1.614-3.242,3.528v0.028c0,2.057,1.357,3.571,3.399,3.571
			c0.942,0,1.8-0.3,2.414-0.757v-1.871h-2.557v-1.528h4.256v4.199c-0.985,0.842-2.399,1.557-4.17,1.557
			C456.385,17.734,454.328,15.506,454.328,12.592z"/>
		<path class="st0" d="M465.895,7.565h7.413v1.571h-5.656v2.6h5.013v1.571h-5.013v2.685h5.728v1.571h-7.484V7.565z"/>
		<path class="st0" d="M475.391,7.565h1.871l3.042,4.728l3.042-4.728h1.871v9.998h-1.757v-7.17l-3.156,4.713h-0.057l-3.128-4.685
			v7.141h-1.729V7.565z"/>
		<path class="st0" d="M487.715,7.565h7.413v1.571h-5.656v2.6h5.013v1.571h-5.013v2.685h5.728v1.571h-7.484V7.565z"/>
		<path class="st0" d="M497.211,7.565h1.629l5.355,6.913V7.565h1.729v9.998h-1.472l-5.513-7.112v7.112h-1.729V7.565z"/>
		<path class="st0" d="M510.879,9.193h-3.171V7.565h8.112v1.628h-3.171v8.369h-1.771V9.193z"/>
	</g>
</g>
<g>
	<g>
		<path class="st0" d="M640.619,191.794h1.9l2.385,7.413l2.457-7.441h1.484l2.457,7.441l2.385-7.413h1.843l-3.471,10.069h-1.528
			l-2.456-7.184l-2.457,7.184h-1.514L640.619,191.794z"/>
		<path class="st0" d="M659.085,191.723h1.628l4.399,10.069h-1.856l-1.015-2.414h-4.728l-1.027,2.414h-1.8L659.085,191.723z
			 M661.599,197.821l-1.728-3.999l-1.714,3.999H661.599z"/>
		<path class="st0" d="M666.753,191.794h4.456c1.257,0,2.242,0.372,2.885,1c0.529,0.543,0.829,1.286,0.829,2.157v0.029
			c0,1.643-0.985,2.628-2.371,3.028l2.699,3.785h-2.085l-2.457-3.485h-2.199v3.485h-1.757V191.794z M671.081,196.75
			c1.257,0,2.057-0.657,2.057-1.671v-0.028c0-1.071-0.771-1.657-2.071-1.657h-2.557v3.356H671.081z"/>
		<path class="st0" d="M677.006,191.794h7.413v1.571h-5.656v2.6h5.013v1.571h-5.013v2.685h5.728v1.571h-7.484V191.794z"/>
		<path class="st0" d="M686.502,191.794h1.757v4.156h4.771v-4.156h1.757v9.998h-1.757v-4.213h-4.771v4.213h-1.757V191.794z"/>
		<path class="st0" d="M696.842,196.822v-0.029c0-2.813,2.171-5.17,5.241-5.17c3.071,0,5.213,2.328,5.213,5.142v0.028
			c0,2.814-2.171,5.17-5.241,5.17S696.842,199.635,696.842,196.822z M705.454,196.822v-0.029c0-1.942-1.414-3.556-3.399-3.556
			s-3.371,1.585-3.371,3.528v0.028c0,1.942,1.414,3.542,3.399,3.542S705.454,198.764,705.454,196.822z"/>
		<path class="st0" d="M709.193,197.55v-5.756h1.757v5.684c0,1.857,0.957,2.842,2.528,2.842c1.557,0,2.514-0.928,2.514-2.771v-5.756
			h1.757v5.67c0,2.985-1.686,4.485-4.299,4.485C710.851,201.949,709.193,200.449,709.193,197.55z"/>
		<path class="st0" d="M719.419,200.335l1.057-1.257c0.957,0.829,1.929,1.3,3.156,1.3c1.086,0,1.771-0.514,1.771-1.257v-0.028
			c0-0.714-0.4-1.1-2.257-1.528c-2.128-0.514-3.328-1.143-3.328-2.985v-0.029c0-1.714,1.429-2.899,3.414-2.899
			c1.457,0,2.613,0.443,3.627,1.257l-0.942,1.329c-0.899-0.671-1.8-1.028-2.714-1.028c-1.027,0-1.628,0.528-1.628,1.185v0.029
			c0,0.771,0.457,1.114,2.386,1.571c2.113,0.515,3.199,1.271,3.199,2.928v0.028c0,1.871-1.472,2.985-3.571,2.985
			C722.061,201.935,720.618,201.406,719.419,200.335z"/>
		<path class="st0" d="M729.258,191.794h1.756v9.998h-1.756V191.794z"/>
		<path class="st0" d="M733.613,191.794h1.629l5.355,6.913v-6.913h1.729v9.998h-1.472l-5.513-7.112v7.112h-1.729V191.794z"/>
		<path class="st0" d="M744.381,196.822v-0.029c0-2.799,2.143-5.17,5.156-5.17c1.742,0,2.813,0.485,3.842,1.357l-1.114,1.328
			c-0.771-0.657-1.528-1.071-2.8-1.071c-1.842,0-3.242,1.614-3.242,3.528v0.028c0,2.057,1.357,3.571,3.399,3.571
			c0.942,0,1.8-0.3,2.414-0.757v-1.871h-2.557v-1.528h4.256v4.199c-0.985,0.842-2.399,1.557-4.17,1.557
			C746.438,201.963,744.381,199.735,744.381,196.822z"/>
	</g>
</g>
<g>
	<g>
		<path class="st0" d="M57.381,191.793h1.871l3.042,4.728l3.042-4.728h1.871v9.998H65.45v-7.17l-3.156,4.713h-0.058l-3.127-4.685
			v7.141h-1.728V191.793z"/>
		<path class="st0" d="M73.246,191.722h1.628l4.399,10.069h-1.856l-1.014-2.414h-4.728l-1.028,2.414h-1.799L73.246,191.722z
			 M75.76,197.82l-1.728-3.999l-1.714,3.999H75.76z"/>
		<path class="st0" d="M80.915,191.793h1.628l5.356,6.913v-6.913h1.728v9.998h-1.471l-5.513-7.112v7.112h-1.728V191.793z"/>
		<path class="st0" d="M91.968,197.549v-5.756h1.757v5.684c0,1.857,0.957,2.842,2.528,2.842c1.557,0,2.514-0.928,2.514-2.771v-5.756
			h1.756v5.67c0,2.985-1.685,4.485-4.299,4.485C93.625,201.948,91.968,200.448,91.968,197.549z"/>
		<path class="st0" d="M102.863,191.793h7.441v1.6h-5.685v2.728h5.042v1.6h-5.042v4.07h-1.757V191.793z"/>
		<path class="st0" d="M115.702,191.722h1.628l4.399,10.069h-1.857l-1.014-2.414h-4.728l-1.028,2.414h-1.8L115.702,191.722z
			 M118.216,197.82l-1.729-3.999l-1.714,3.999H118.216z"/>
		<path class="st0" d="M122.927,196.821v-0.029c0-2.842,2.128-5.17,5.156-5.17c1.842,0,2.957,0.643,3.913,1.557l-1.128,1.3
			c-0.8-0.743-1.657-1.243-2.799-1.243c-1.9,0-3.299,1.571-3.299,3.528v0.028c0,1.957,1.385,3.542,3.299,3.542
			c1.228,0,2.014-0.485,2.871-1.285l1.128,1.143c-1.042,1.085-2.185,1.771-4.056,1.771
			C125.098,201.962,122.927,199.691,122.927,196.821z"/>
		<path class="st0" d="M136.294,193.422h-3.171v-1.628h8.112v1.628h-3.171v8.369h-1.771V193.422z"/>
		<path class="st0" d="M142.863,197.549v-5.756h1.756v5.684c0,1.857,0.957,2.842,2.528,2.842c1.557,0,2.514-0.928,2.514-2.771
			v-5.756h1.757v5.67c0,2.985-1.686,4.485-4.299,4.485C144.52,201.948,142.863,200.448,142.863,197.549z"/>
		<path class="st0" d="M153.759,191.793h4.456c1.257,0,2.242,0.372,2.885,1c0.528,0.543,0.828,1.286,0.828,2.157v0.029
			c0,1.643-0.985,2.628-2.371,3.028l2.699,3.785h-2.085l-2.457-3.485h-2.2v3.485h-1.756V191.793z M158.086,196.75
			c1.257,0,2.057-0.657,2.057-1.671v-0.028c0-1.071-0.771-1.657-2.071-1.657h-2.557v3.356H158.086z"/>
		<path class="st0" d="M164.111,191.793h1.757v9.998h-1.757V191.793z"/>
		<path class="st0" d="M168.467,191.793h1.628l5.356,6.913v-6.913h1.728v9.998h-1.471l-5.513-7.112v7.112h-1.729V191.793z"/>
		<path class="st0" d="M179.234,196.821v-0.029c0-2.799,2.142-5.17,5.156-5.17c1.743,0,2.813,0.485,3.842,1.357l-1.114,1.328
			c-0.771-0.657-1.528-1.071-2.799-1.071c-1.842,0-3.242,1.614-3.242,3.528v0.028c0,2.057,1.357,3.571,3.399,3.571
			c0.943,0,1.8-0.3,2.414-0.757v-1.871h-2.557v-1.528h4.256v4.199c-0.985,0.842-2.399,1.557-4.17,1.557
			C181.291,201.962,179.234,199.734,179.234,196.821z"/>
	</g>
</g>
<g>
	<g>
		<path class="st0" d="M641.391,361.614h1.757v8.398h5.256v1.6h-7.013V361.614z"/>
		<path class="st0" d="M649.716,366.641v-0.029c0-2.813,2.171-5.17,5.241-5.17c3.071,0,5.213,2.328,5.213,5.142v0.028
			c0,2.814-2.171,5.17-5.241,5.17S649.716,369.455,649.716,366.641z M658.328,366.641v-0.029c0-1.942-1.414-3.556-3.399-3.556
			s-3.37,1.585-3.37,3.528v0.028c0,1.942,1.413,3.542,3.398,3.542S658.328,368.583,658.328,366.641z"/>
		<path class="st0" d="M661.783,366.641v-0.029c0-2.799,2.143-5.17,5.156-5.17c1.742,0,2.813,0.485,3.842,1.357l-1.114,1.328
			c-0.771-0.657-1.528-1.071-2.8-1.071c-1.842,0-3.242,1.614-3.242,3.528v0.028c0,2.057,1.357,3.571,3.399,3.571
			c0.942,0,1.8-0.3,2.414-0.757v-1.871h-2.557v-1.528h4.256v4.199c-0.985,0.842-2.399,1.557-4.17,1.557
			C663.84,371.783,661.783,369.555,661.783,366.641z"/>
		<path class="st0" d="M673.45,361.614h1.757v9.998h-1.757V361.614z"/>
		<path class="st0" d="M677.135,370.154l1.057-1.257c0.957,0.829,1.928,1.3,3.156,1.3c1.086,0,1.771-0.514,1.771-1.257v-0.028
			c0-0.714-0.4-1.1-2.257-1.528c-2.128-0.514-3.328-1.143-3.328-2.985v-0.029c0-1.714,1.429-2.899,3.414-2.899
			c1.456,0,2.613,0.443,3.628,1.257l-0.943,1.329c-0.899-0.671-1.799-1.028-2.713-1.028c-1.029,0-1.629,0.528-1.629,1.185v0.029
			c0,0.771,0.457,1.114,2.386,1.571c2.113,0.515,3.199,1.271,3.199,2.928v0.028c0,1.871-1.472,2.985-3.571,2.985
			C679.777,371.754,678.334,371.226,677.135,370.154z"/>
		<path class="st0" d="M689.33,363.242h-3.171v-1.628h8.112v1.628h-3.171v8.369h-1.771V363.242z"/>
		<path class="st0" d="M696.156,361.614h1.756v9.998h-1.756V361.614z"/>
		<path class="st0" d="M700.068,366.641v-0.029c0-2.842,2.128-5.17,5.156-5.17c1.842,0,2.956,0.643,3.913,1.557l-1.129,1.3
			c-0.8-0.743-1.656-1.243-2.799-1.243c-1.899,0-3.3,1.571-3.3,3.528v0.028c0,1.957,1.386,3.542,3.3,3.542
			c1.229,0,2.014-0.485,2.87-1.285l1.129,1.143c-1.043,1.085-2.186,1.771-4.057,1.771
			C702.239,371.783,700.068,369.512,700.068,366.641z"/>
		<path class="st0" d="M710.308,370.154l1.057-1.257c0.957,0.829,1.929,1.3,3.156,1.3c1.086,0,1.771-0.514,1.771-1.257v-0.028
			c0-0.714-0.4-1.1-2.257-1.528c-2.128-0.514-3.328-1.143-3.328-2.985v-0.029c0-1.714,1.429-2.899,3.414-2.899
			c1.457,0,2.613,0.443,3.627,1.257l-0.942,1.329c-0.899-0.671-1.8-1.028-2.714-1.028c-1.027,0-1.628,0.528-1.628,1.185v0.029
			c0,0.771,0.457,1.114,2.386,1.571c2.113,0.515,3.199,1.271,3.199,2.928v0.028c0,1.871-1.472,2.985-3.571,2.985
			C712.949,371.754,711.507,371.226,710.308,370.154z"/>
	</g>
</g>
<g>
	<g>
		<path class="st0" d="M82.771,361.542h1.628l4.399,10.069H86.94l-1.014-2.414h-4.728l-1.028,2.414h-1.8L82.771,361.542z
			 M85.284,367.641l-1.729-3.999l-1.714,3.999H85.284z"/>
		<path class="st0" d="M90.438,361.614h3.941c2.343,0,3.799,1.328,3.799,3.342v0.028c0,2.242-1.799,3.414-3.999,3.414h-1.985v3.213
			h-1.756V361.614z M94.237,366.812c1.328,0,2.157-0.743,2.157-1.785v-0.029c0-1.171-0.843-1.785-2.157-1.785h-2.042v3.599H94.237z"
			/>
		<path class="st0" d="M99.906,361.614h3.942c2.342,0,3.799,1.328,3.799,3.342v0.028c0,2.242-1.8,3.414-3.999,3.414h-1.985v3.213
			h-1.757V361.614z M103.706,366.812c1.328,0,2.157-0.743,2.157-1.785v-0.029c0-1.171-0.843-1.785-2.157-1.785h-2.042v3.599H103.706
			z"/>
		<path class="st0" d="M109.374,361.614h1.757v8.398h5.256v1.6h-7.013V361.614z"/>
		<path class="st0" d="M118.242,361.614h1.757v9.998h-1.757V361.614z"/>
		<path class="st0" d="M122.155,366.641v-0.029c0-2.842,2.128-5.17,5.156-5.17c1.842,0,2.957,0.643,3.913,1.557l-1.128,1.3
			c-0.8-0.743-1.657-1.243-2.799-1.243c-1.9,0-3.299,1.571-3.299,3.528v0.028c0,1.957,1.385,3.542,3.299,3.542
			c1.228,0,2.014-0.485,2.871-1.285l1.128,1.143c-1.042,1.085-2.185,1.771-4.056,1.771
			C124.326,371.783,122.155,369.512,122.155,366.641z"/>
		<path class="st0" d="M136.607,361.542h1.628l4.399,10.069h-1.857l-1.014-2.414h-4.728l-1.028,2.414h-1.8L136.607,361.542z
			 M139.121,367.641l-1.729-3.999l-1.714,3.999H139.121z"/>
		<path class="st0" d="M145.875,363.242h-3.171v-1.628h8.112v1.628h-3.171v8.369h-1.771V363.242z"/>
		<path class="st0" d="M152.7,361.614h1.757v9.998H152.7V361.614z"/>
		<path class="st0" d="M156.613,366.641v-0.029c0-2.813,2.171-5.17,5.241-5.17c3.071,0,5.213,2.328,5.213,5.142v0.028
			c0,2.814-2.171,5.17-5.242,5.17S156.613,369.455,156.613,366.641z M165.226,366.641v-0.029c0-1.942-1.414-3.556-3.399-3.556
			s-3.371,1.585-3.371,3.528v0.028c0,1.942,1.414,3.542,3.399,3.542C163.84,370.154,165.226,368.583,165.226,366.641z"/>
		<path class="st0" d="M169.123,361.614h1.628l5.356,6.913v-6.913h1.728v9.998h-1.471l-5.513-7.112v7.112h-1.728V361.614z"/>
		<path class="st0" d="M179.662,370.154l1.057-1.257c0.957,0.829,1.928,1.3,3.157,1.3c1.085,0,1.771-0.514,1.771-1.257v-0.028
			c0-0.714-0.399-1.1-2.256-1.528c-2.128-0.514-3.328-1.143-3.328-2.985v-0.029c0-1.714,1.428-2.899,3.413-2.899
			c1.457,0,2.614,0.443,3.628,1.257l-0.942,1.329c-0.9-0.671-1.8-1.028-2.714-1.028c-1.028,0-1.628,0.528-1.628,1.185v0.029
			c0,0.771,0.457,1.114,2.385,1.571c2.114,0.515,3.199,1.271,3.199,2.928v0.028c0,1.871-1.471,2.985-3.57,2.985
			C182.304,371.754,180.861,371.226,179.662,370.154z"/>
	</g>
</g>
<g>
	<g>
		<path class="st0" d="M377.442,533.982h3.941c2.343,0,3.799,1.329,3.799,3.343v0.028c0,2.242-1.799,3.413-3.999,3.413h-1.985v3.214
			h-1.756V533.982z M381.241,539.182c1.328,0,2.157-0.742,2.157-1.785v-0.028c0-1.172-0.843-1.786-2.157-1.786h-2.042v3.6H381.241z"
			/>
		<path class="st0" d="M386.91,533.982h1.756v8.398h5.256v1.6h-7.012V533.982z"/>
		<path class="st0" d="M399.22,533.911h1.628l4.399,10.069h-1.856l-1.014-2.414h-4.728l-1.028,2.414h-1.799L399.22,533.911z
			 M401.733,540.01l-1.728-3.999l-1.714,3.999H401.733z"/>
		<path class="st0" d="M406.888,533.982h1.628l5.356,6.913v-6.913h1.728v9.998h-1.471l-5.513-7.112v7.112h-1.729V533.982z"/>
		<path class="st0" d="M418.098,533.982h1.629l5.355,6.913v-6.913h1.729v9.998h-1.472l-5.513-7.112v7.112h-1.729V533.982z"/>
		<path class="st0" d="M429.408,533.982h1.756v9.998h-1.756V533.982z"/>
		<path class="st0" d="M433.764,533.982h1.629l5.355,6.913v-6.913h1.729v9.998h-1.472l-5.513-7.112v7.112h-1.729V533.982z"/>
		<path class="st0" d="M444.531,539.01v-0.028c0-2.799,2.143-5.17,5.156-5.17c1.742,0,2.813,0.485,3.842,1.356l-1.114,1.328
			c-0.771-0.656-1.528-1.07-2.8-1.07c-1.842,0-3.242,1.613-3.242,3.527v0.028c0,2.057,1.357,3.571,3.399,3.571
			c0.942,0,1.8-0.301,2.414-0.758v-1.871h-2.557v-1.527h4.256v4.198c-0.985,0.843-2.399,1.558-4.17,1.558
			C446.588,544.152,444.531,541.924,444.531,539.01z"/>
	</g>
</g>
<g>
	<path class="st0" d="M424.895,103.447c-0.205,0-0.409-0.058-0.587-0.17c-0.318-0.201-0.512-0.552-0.512-0.928V90.1l-27.854-13.596
		c-0.545-0.266-0.771-0.924-0.505-1.469c0.267-0.545,0.923-0.772,1.469-0.505l28.076,13.705c0.082,0.04,0.158,0.09,0.229,0.149
		c0.489,0.415,0.782,1.055,0.782,1.713v10.517l7.828-3.709V85.35l-27.853-13.596c-0.545-0.266-0.771-0.924-0.505-1.469
		c0.266-0.545,0.923-0.772,1.469-0.505l28.076,13.705c0.082,0.04,0.158,0.09,0.229,0.149c0.489,0.414,0.781,1.054,0.781,1.713
		v12.253c0,0.424-0.245,0.811-0.628,0.993l-10.025,4.75C425.216,103.412,425.055,103.447,424.895,103.447z"/>
	<path class="st0" d="M415.621,128.045c-0.159,0-0.318-0.035-0.466-0.104l-28.061-13.135c-1.208-0.566-1.988-1.839-1.988-3.242
		V81.457c0-1.246,0.531-2.372,1.421-3.012c0.055-0.04,0.114-0.074,0.175-0.103l27.806-13.046c0.844-0.392,1.804-0.387,2.637,0.012
		l27.476,13.171c0.085,0.041,0.163,0.092,0.234,0.152c0.803,0.679,1.282,1.735,1.282,2.826v30.108c0,1.402-0.78,2.675-1.987,3.241
		l-28.062,13.135C415.939,128.011,415.78,128.045,415.621,128.045z M387.748,80.279c-0.269,0.237-0.444,0.698-0.444,1.178v30.108
		c0,0.546,0.291,1.049,0.723,1.252l27.595,12.917l27.596-12.917c0.432-0.203,0.723-0.706,0.723-1.251V81.457
		c0-0.396-0.161-0.802-0.417-1.067l-27.326-13.1c-0.243-0.116-0.512-0.117-0.759-0.003L387.748,80.279z"/>
	<path class="st0" d="M415.621,127.083c-0.606,0-1.099-0.492-1.099-1.099V95.875c0-0.396-0.161-0.802-0.417-1.067l-27.327-13.1
		c-0.547-0.262-0.778-0.918-0.516-1.466c0.262-0.547,0.918-0.777,1.466-0.516l27.474,13.171c0.085,0.041,0.163,0.092,0.234,0.152
		c0.803,0.679,1.282,1.735,1.282,2.826v30.108C416.72,126.59,416.228,127.083,415.621,127.083z"/>
	<path class="st0" d="M415.638,95.623c-0.41,0-0.803-0.23-0.991-0.624c-0.263-0.547-0.031-1.204,0.516-1.466l27.475-13.171
		c0.548-0.262,1.203-0.03,1.465,0.516c0.263,0.547,0.031,1.204-0.516,1.466l-27.475,13.171
		C415.958,95.588,415.797,95.623,415.638,95.623z"/>
</g>
<g>
	<rect x="556.576" y="382.66" class="st0" width="18.676" height="1.978"/>
	<path class="st0" d="M546.021,384.681h-8.688c-0.546,0-0.988-0.443-0.988-0.989v-10.309c0-0.546,0.442-0.989,0.988-0.989h37.293
		v1.978h-36.305v8.332h7.7V384.681z"/>
	<path class="st0" d="M570.248,343.28v25.885h-31.876V343.28H570.248 M571.127,341.302h-33.634c-0.607,0-1.099,0.492-1.099,1.098
		v27.643c0,0.607,0.492,1.098,1.099,1.098h33.634c0.607,0,1.098-0.492,1.098-1.098v-27.643
		C572.225,341.794,571.734,341.302,571.127,341.302L571.127,341.302z"/>
	<path class="st0" d="M601.156,384.644h-8.189v-1.978h7.201v-14.539l-5.94-14.918h-18.1v29.457h5.655v1.978h-6.644
		c-0.546,0-0.988-0.443-0.988-0.989V352.22c0-0.546,0.442-0.989,0.988-0.989h19.759c0.405,0,0.769,0.247,0.919,0.623l6.258,15.717
		c0.046,0.116,0.069,0.241,0.069,0.366v15.717C602.145,384.201,601.702,384.644,601.156,384.644z"/>
	<path class="st0" d="M550.826,378.562c2.507,0,4.546,2.039,4.546,4.546c0,2.507-2.039,4.546-4.546,4.546
		c-2.507,0-4.546-2.039-4.546-4.546C546.28,380.601,548.32,378.562,550.826,378.562 M550.826,376.585
		c-3.603,0-6.524,2.921-6.524,6.524c0,3.603,2.921,6.524,6.524,6.524s6.524-2.921,6.524-6.524
		C557.35,379.505,554.429,376.585,550.826,376.585L550.826,376.585z"/>
	<path class="st0" d="M587.294,378.562c2.507,0,4.546,2.039,4.546,4.546c0,2.507-2.039,4.546-4.546,4.546
		c-2.507,0-4.546-2.039-4.546-4.546C582.748,380.601,584.787,378.562,587.294,378.562 M587.294,376.585
		c-3.603,0-6.524,2.921-6.524,6.524c0,3.603,2.921,6.524,6.524,6.524s6.524-2.921,6.524-6.524
		C593.818,379.505,590.897,376.585,587.294,376.585L587.294,376.585z"/>
	<path class="st0" d="M593.743,368.926h-12.897c-0.546,0-0.988-0.443-0.988-0.989v-10.985c0-0.546,0.442-0.989,0.988-0.989h8.392
		c0.401,0,0.763,0.243,0.915,0.614l4.506,10.985c0.125,0.305,0.09,0.652-0.094,0.926
		C594.381,368.762,594.072,368.926,593.743,368.926z M581.834,366.949h10.436l-3.695-9.007h-6.74V366.949z"/>
</g>
<g>
	<path class="st0" d="M292.789,223.999h-53.767c-0.606,0-1.099-0.492-1.099-1.099V196.94c0-0.606,0.492-1.099,1.099-1.099h53.767
		c0.606,0,1.099,0.492,1.099,1.099V222.9C293.888,223.506,293.396,223.999,292.789,223.999z M240.121,221.801h51.57v-23.762h-51.57
		V221.801z"/>
	<g>
		<rect x="243.686" y="201.908" class="st0" width="1.978" height="16.024"/>
		<rect x="250.763" y="201.908" class="st0" width="1.978" height="16.024"/>
		<rect x="257.84" y="201.908" class="st0" width="1.978" height="16.024"/>
		<rect x="264.917" y="201.908" class="st0" width="1.978" height="16.024"/>
		<rect x="271.994" y="201.908" class="st0" width="1.978" height="16.024"/>
		<rect x="279.071" y="201.908" class="st0" width="1.978" height="16.024"/>
		<rect x="286.147" y="201.908" class="st0" width="1.978" height="16.024"/>
	</g>
	<path class="st0" d="M292.17,197.848l-26.265-17.892l-26.265,17.892l-1.237-1.815l26.884-18.313c0.374-0.255,0.864-0.255,1.237,0
		l26.883,18.313L292.17,197.848z"/>
	<path class="st0" d="M265.906,183.437c-3.271,0-5.932-2.661-5.932-5.932h1.978c0,2.181,1.774,3.955,3.955,3.955
		c2.18,0,3.954-1.774,3.954-3.955c0-2.18-1.774-3.954-3.954-3.954c-0.546,0-0.989-0.443-0.989-0.989v-6.794h1.978v5.888
		c2.802,0.472,4.943,2.915,4.943,5.849C271.837,180.776,269.176,183.437,265.906,183.437z"/>
	<path class="st0" d="M278.5,161.866v2.947h-25.188v-2.947H278.5 M280.477,159.889h-29.143v6.901h29.143V159.889L280.477,159.889z"
		/>
</g>
<g>
	<path class="st0" d="M573.905,218.913h-7.498c-0.546,0-0.988-0.443-0.988-0.989v-7.249c0-0.546,0.442-0.989,0.988-0.989h7.498
		c0.546,0,0.988,0.443,0.988,0.989v7.249C574.894,218.47,574.451,218.913,573.905,218.913z M567.396,216.936h5.521v-5.271h-5.521
		V216.936z"/>
	<path class="st0" d="M560.309,218.913h-7.498c-0.546,0-0.988-0.443-0.988-0.989v-7.249c0-0.546,0.442-0.989,0.988-0.989h7.498
		c0.546,0,0.988,0.443,0.988,0.989v7.249C561.297,218.47,560.854,218.913,560.309,218.913z M553.799,216.936h5.521v-5.271h-5.521
		V216.936z"/>
	<path class="st0" d="M588.217,218.913h-7.498c-0.546,0-0.988-0.443-0.988-0.989v-7.249c0-0.546,0.442-0.989,0.988-0.989h7.498
		c0.546,0,0.988,0.443,0.988,0.989v7.249C589.205,218.47,588.763,218.913,588.217,218.913z M581.707,216.936h5.521v-5.271h-5.521
		V216.936z"/>
	<path class="st0" d="M545.724,180.011v42.58h-9.276v-42.58H545.724 M547.702,178.034h-13.231v46.535h13.231V178.034
		L547.702,178.034z"/>
	<path class="st0" d="M593.515,224.503H546.82c-0.546,0-0.988-0.443-0.988-0.989v-18.525c0-0.365,0.201-0.701,0.523-0.873
		l13.099-6.975c0.308-0.164,0.677-0.153,0.974,0.025c0.298,0.179,0.479,0.5,0.479,0.848V204h32.607c0.546,0,0.988,0.443,0.988,0.989
		v18.525C594.503,224.06,594.061,224.503,593.515,224.503z M547.809,222.525h44.718v-16.548h-32.607
		c-0.546,0-0.988-0.443-0.988-0.989v-5.329l-11.122,5.922V222.525z"/>
	<g>
		<path class="st0" d="M587.254,185.804l1.663,18.199h-8.898l1.663-18.199H587.254 M589.059,183.827h-9.182l-2.024,22.153h13.231
			L589.059,183.827L589.059,183.827z"/>
		<path class="st0" d="M572.942,185.804l1.663,18.199h-8.898l1.663-18.199H572.942 M574.747,183.827h-9.182l-2.024,22.153h13.231
			L574.747,183.827L574.747,183.827z"/>
		<rect x="565.229" y="197.25" class="st0" width="9.335" height="1.978"/>
		<rect x="565.533" y="190.666" class="st0" width="9.245" height="1.978"/>
		<rect x="579.555" y="197.25" class="st0" width="9.32" height="1.978"/>
		<rect x="579.845" y="190.666" class="st0" width="9.246" height="1.978"/>
	</g>
	<g>
		<path class="st0" d="M579.315,158.548c0.189,0.045,0.377,0.095,0.563,0.15l-0.028,1.679c-0.012,0.718,0.367,1.386,0.988,1.745
			c0.306,0.177,0.647,0.265,0.989,0.265c0.352,0,0.704-0.094,1.017-0.282l1.439-0.863c0.141,0.134,0.279,0.271,0.412,0.412
			l-0.863,1.439c-0.369,0.616-0.376,1.384-0.017,2.006c0.354,0.612,1.007,0.989,1.712,0.989c0.011,0,0.022,0,0.033,0l1.679-0.028
			c0.055,0.186,0.105,0.374,0.15,0.563l-1.467,0.815c-0.628,0.349-1.017,1.01-1.017,1.729s0.389,1.38,1.017,1.729l1.467,0.815
			c-0.045,0.189-0.095,0.377-0.15,0.563l-1.679-0.028c-0.011,0-0.022,0-0.033,0c-0.706,0-1.359,0.376-1.712,0.989
			c-0.359,0.622-0.353,1.39,0.017,2.006l0.863,1.439c-0.134,0.141-0.271,0.278-0.412,0.412l-1.439-0.863
			c-0.313-0.188-0.665-0.282-1.017-0.282c-0.341,0-0.683,0.088-0.989,0.265c-0.622,0.359-1,1.027-0.988,1.745l0.028,1.679
			c-0.186,0.055-0.374,0.105-0.563,0.15l-0.815-1.467c-0.349-0.628-1.01-1.017-1.729-1.017c-0.718,0-1.38,0.389-1.729,1.017
			l-0.815,1.467c-0.189-0.045-0.377-0.095-0.563-0.15l0.028-1.679c0.012-0.718-0.367-1.386-0.988-1.745
			c-0.306-0.177-0.647-0.265-0.989-0.265c-0.352,0-0.704,0.094-1.017,0.281l-1.439,0.863c-0.141-0.134-0.278-0.271-0.412-0.412
			l0.863-1.439c0.369-0.616,0.376-1.384,0.017-2.006c-0.354-0.612-1.007-0.989-1.712-0.989c-0.011,0-0.022,0-0.033,0l-1.679,0.028
			c-0.055-0.186-0.105-0.374-0.15-0.563l1.467-0.815c0.628-0.349,1.017-1.01,1.017-1.729s-0.389-1.38-1.017-1.729l-1.467-0.815
			c0.045-0.189,0.095-0.377,0.15-0.563l1.679,0.028c0.011,0,0.022,0,0.033,0c0.706,0,1.359-0.376,1.712-0.989
			c0.359-0.622,0.353-1.39-0.017-2.006l-0.863-1.439c0.134-0.141,0.271-0.278,0.412-0.412l1.439,0.863
			c0.313,0.188,0.665,0.281,1.017,0.281c0.341,0,0.683-0.088,0.989-0.265c0.622-0.359,1-1.027,0.988-1.745l-0.028-1.679
			c0.186-0.055,0.374-0.105,0.563-0.15l0.815,1.467c0.349,0.628,1.01,1.017,1.729,1.017c0.718,0,1.38-0.389,1.729-1.017
			L579.315,158.548 M576.689,175.986c3.841,0,6.966-3.125,6.966-6.966c0-3.841-3.125-6.966-6.966-6.966s-6.966,3.125-6.966,6.966
			C569.723,172.861,572.848,175.986,576.689,175.986 M578.268,156.36l-1.497,2.695l-1.497-2.695
			c-1.268,0.147-2.481,0.476-3.609,0.963l0.051,3.086l-2.646-1.587c-1.003,0.748-1.893,1.638-2.641,2.641l1.587,2.646l-3.086-0.051
			c-0.487,1.129-0.817,2.341-0.964,3.61l2.695,1.497l-2.695,1.497c0.147,1.268,0.476,2.481,0.964,3.61l3.086-0.051l-1.587,2.646
			c0.748,1.003,1.638,1.893,2.641,2.641l2.646-1.587l-0.051,3.086c1.129,0.487,2.341,0.817,3.609,0.963l1.497-2.695l1.497,2.695
			c1.268-0.147,2.481-0.476,3.61-0.963l-0.051-3.086l2.646,1.587c1.003-0.748,1.893-1.638,2.641-2.641l-1.587-2.646l3.086,0.051
			c0.487-1.129,0.817-2.341,0.964-3.61l-2.695-1.497l2.695-1.497c-0.147-1.268-0.476-2.481-0.964-3.61l-3.086,0.051l1.587-2.646
			c-0.748-1.003-1.638-1.893-2.641-2.641l-2.646,1.587l0.051-3.086C580.749,156.836,579.537,156.507,578.268,156.36L578.268,156.36z
			 M576.689,174.009c-2.755,0-4.989-2.234-4.989-4.989s2.234-4.989,4.989-4.989s4.989,2.234,4.989,4.989
			S579.445,174.009,576.689,174.009L576.689,174.009z"/>
		<path class="st0" d="M576.771,168.124c0.575,0,1.043,0.468,1.043,1.043s-0.468,1.043-1.043,1.043s-1.043-0.468-1.043-1.043
			S576.196,168.124,576.771,168.124 M576.771,166.146c-1.668,0-3.02,1.352-3.02,3.02s1.352,3.02,3.02,3.02s3.02-1.352,3.02-3.02
			S578.439,166.146,576.771,166.146L576.771,166.146z"/>
	</g>
</g>
<g>
	<path class="st0" d="M295.074,336.647v58.337h-58.337v-58.337H295.074L295.074,336.647 M295.074,334.45h-58.337
		c-1.213,0-2.197,0.984-2.197,2.197v58.337c0,1.213,0.984,2.197,2.197,2.197h58.337c1.213,0,2.197-0.984,2.197-2.197v-58.337
		C297.271,335.434,296.288,334.45,295.074,334.45L295.074,334.45z"/>
	<path class="st0" d="M295.983,345.968h-60.156c-0.606,0-1.099-0.492-1.099-1.099s0.492-1.099,1.099-1.099h60.156
		c0.606,0,1.099,0.492,1.099,1.099S296.59,345.968,295.983,345.968z"/>
	<path class="st0" d="M242.299,341.267h-1.839c-0.606,0-1.099-0.492-1.099-1.099s0.492-1.099,1.099-1.099h1.839
		c0.606,0,1.099,0.492,1.099,1.099S242.905,341.267,242.299,341.267z"/>
	<path class="st0" d="M248.225,341.267h-1.838c-0.606,0-1.099-0.492-1.099-1.099s0.492-1.099,1.099-1.099h1.838
		c0.606,0,1.099,0.492,1.099,1.099S248.832,341.267,248.225,341.267z"/>
	<path class="st0" d="M254.152,341.267h-1.839c-0.606,0-1.099-0.492-1.099-1.099s0.492-1.099,1.099-1.099h1.839
		c0.606,0,1.099,0.492,1.099,1.099S254.758,341.267,254.152,341.267z"/>
	<g>
		<path class="st0" d="M253.61,353.47v6.036h-6.036v-6.036H253.61 M254.341,351.273h-7.498c-0.81,0-1.466,0.657-1.466,1.466v7.498
			c0,0.81,0.657,1.466,1.466,1.466h7.498c0.81,0,1.466-0.657,1.466-1.466v-7.498C255.807,351.929,255.151,351.273,254.341,351.273
			L254.341,351.273z"/>
		<path class="st0" d="M268.924,353.47v6.036h-6.036v-6.036H268.924 M269.654,351.273h-7.498c-0.81,0-1.466,0.657-1.466,1.466v7.498
			c0,0.81,0.657,1.466,1.466,1.466h7.498c0.81,0,1.466-0.657,1.466-1.466v-7.498C271.121,351.929,270.464,351.273,269.654,351.273
			L269.654,351.273z"/>
		<path class="st0" d="M284.237,353.47v6.036h-6.036v-6.036H284.237 M284.968,351.273h-7.498c-0.81,0-1.466,0.657-1.466,1.466v7.498
			c0,0.81,0.657,1.466,1.466,1.466h7.498c0.81,0,1.466-0.657,1.466-1.466v-7.498C286.434,351.929,285.778,351.273,284.968,351.273
			L284.968,351.273z"/>
		<path class="st0" d="M253.61,367.588v6.036h-6.036v-6.036H253.61 M254.341,365.391h-7.498c-0.81,0-1.466,0.657-1.466,1.466v7.498
			c0,0.81,0.657,1.466,1.466,1.466h7.498c0.81,0,1.466-0.657,1.466-1.466v-7.498C255.807,366.048,255.151,365.391,254.341,365.391
			L254.341,365.391z"/>
		<path class="st0" d="M268.924,367.588v6.036h-6.036v-6.036H268.924 M269.654,365.391h-7.498c-0.81,0-1.466,0.657-1.466,1.466
			v7.498c0,0.81,0.657,1.466,1.466,1.466h7.498c0.81,0,1.466-0.657,1.466-1.466v-7.498
			C271.121,366.048,270.464,365.391,269.654,365.391L269.654,365.391z"/>
		<path class="st0" d="M284.237,367.588v6.036h-6.036v-6.036H284.237 M284.968,365.391h-7.498c-0.81,0-1.466,0.657-1.466,1.466
			v7.498c0,0.81,0.657,1.466,1.466,1.466h7.498c0.81,0,1.466-0.657,1.466-1.466v-7.498
			C286.434,366.048,285.778,365.391,284.968,365.391L284.968,365.391z"/>
		<path class="st0" d="M253.61,381.707v6.036h-6.036v-6.036H253.61 M254.341,379.51h-7.498c-0.81,0-1.466,0.657-1.466,1.466v7.498
			c0,0.81,0.657,1.466,1.466,1.466h7.498c0.81,0,1.466-0.657,1.466-1.466v-7.498C255.807,380.166,255.151,379.51,254.341,379.51
			L254.341,379.51z"/>
		<path class="st0" d="M268.924,381.707v6.036h-6.036v-6.036H268.924 M269.654,379.51h-7.498c-0.81,0-1.466,0.657-1.466,1.466v7.498
			c0,0.81,0.657,1.466,1.466,1.466h7.498c0.81,0,1.466-0.657,1.466-1.466v-7.498C271.121,380.166,270.464,379.51,269.654,379.51
			L269.654,379.51z"/>
		<path class="st0" d="M284.237,381.707v6.036h-6.036v-6.036H284.237 M284.968,379.51h-7.498c-0.81,0-1.466,0.657-1.466,1.466v7.498
			c0,0.81,0.657,1.466,1.466,1.466h7.498c0.81,0,1.466-0.657,1.466-1.466v-7.498C286.434,380.166,285.778,379.51,284.968,379.51
			L284.968,379.51z"/>
	</g>
</g>
<g>
	<path class="st1" d="M421.531,223.56l-1.648-0.007l0.11-25.081c0.012-2.03,1.043-3.555,2.398-3.555c0.004,0,0.007,0,0.011,0
		l5.07,0.03c0.716,0.004,1.377,0.452,1.813,1.23c0.361,0.643,0.558,1.478,0.553,2.352l-0.119,19.041l-1.648-0.011l0.119-19.04
		c0.004-0.583-0.12-1.143-0.341-1.534c-0.16-0.285-0.318-0.389-0.387-0.39l-5.07-0.03c0,0,0,0-0.001,0
		c-0.19,0-0.743,0.657-0.75,1.916L421.531,223.56z"/>
	<path class="st1" d="M438.087,217.915l-1.648-0.008l0.145-29.636c0.004-0.678-0.383-1.153-0.732-1.155l-5.071-0.03
		c-0.248,0.036-0.382,0.164-0.461,0.263c-0.179,0.224-0.283,0.545-0.284,0.882l-0.163,29.414l-1.648-0.009l0.163-29.414
		c0.004-0.712,0.233-1.388,0.647-1.903c0.448-0.56,1.083-0.88,1.743-0.88c0.005,0,0.009,0,0.013,0l5.071,0.03
		c1.315,0.008,2.379,1.269,2.371,2.811L438.087,217.915z"/>
	<path class="st1" d="M445.52,224.215c-0.001,0-0.002,0-0.003,0c-0.455-0.001-0.822-0.372-0.821-0.827l0.084-22.547
		c0.006-1.035-0.469-1.669-0.729-1.671l-5.07-0.03h-0.001c-0.117,0-0.277,0.134-0.409,0.341c-0.213,0.334-0.336,0.815-0.339,1.32
		l-0.079,16.972c-0.003,0.454-0.371,0.82-0.824,0.82c-0.001,0-0.003,0-0.004,0c-0.455-0.002-0.822-0.373-0.82-0.828l0.079-16.973
		c0.005-0.819,0.217-1.598,0.598-2.196c0.446-0.702,1.102-1.104,1.799-1.104c0.004,0,0.007,0,0.011,0l5.07,0.03
		c1.339,0.008,2.378,1.469,2.368,3.327l-0.084,22.545C446.342,223.848,445.974,224.215,445.52,224.215z"/>
	<g>
		<path class="st1" d="M426.452,270.378h-21.662c-0.352,0-0.664-0.223-0.779-0.555s-0.006-0.701,0.271-0.917
			c3.397-2.664,3.093-6.03,3.078-6.172c-0.046-0.451,0.28-0.856,0.731-0.905c0.445-0.053,0.855,0.273,0.907,0.724
			c0.017,0.152,0.33,3.251-2.159,6.178h17.571c-2.495-2.956-2.184-6.156-2.167-6.312c0.05-0.453,0.447-0.782,0.909-0.729
			c0.452,0.049,0.778,0.456,0.729,0.908c-0.015,0.144-0.322,3.642,3.079,6.309c0.276,0.217,0.385,0.585,0.27,0.917
			C427.116,270.155,426.804,270.378,426.452,270.378z"/>
		<path class="st1" d="M453.274,262.086h-75.307c-2.111,0-3.829-1.718-3.829-3.829v-48.126c0-2.111,1.717-3.829,3.829-3.829h42.776
			v1.647h-42.776c-1.203,0-2.181,0.979-2.181,2.181v48.126c0,1.203,0.979,2.182,2.181,2.182h75.307c1.202,0,2.181-0.979,2.181-2.182
			v-48.126c0-1.203-0.979-2.181-2.181-2.181h-6.573v-1.647h6.573c2.111,0,3.829,1.717,3.829,3.829v48.126
			C457.104,260.368,455.386,262.086,453.274,262.086z"/>
	</g>
	<g>
		<path class="st1" d="M395.351,218.641l1.469,2.656c0.29,0.524,0.84,0.849,1.439,0.85c0.001,0,0.002,0,0.003,0
			c0.597,0,1.148-0.323,1.439-0.845l1.479-2.652c0.792,0.15,1.572,0.362,2.334,0.633l-0.056,3.033
			c-0.011,0.598,0.303,1.156,0.821,1.456c0.256,0.148,0.541,0.222,0.826,0.222c0.292,0,0.585-0.078,0.845-0.233l2.605-1.555
			c0.614,0.527,1.185,1.099,1.709,1.711l-1.566,2.601c-0.309,0.513-0.315,1.152-0.017,1.671c0.294,0.512,0.839,0.827,1.428,0.827
			c0.008,0,0.016,0,0.024,0l3.034-0.045c0.266,0.762,0.474,1.543,0.622,2.337l-2.656,1.469c-0.524,0.29-0.849,0.84-0.85,1.439
			s0.322,1.15,0.845,1.442l2.652,1.48c-0.15,0.792-0.362,1.572-0.633,2.334l-3.033-0.056c-0.01,0-0.02,0-0.03,0
			c-0.587,0-1.13,0.312-1.425,0.821c-0.3,0.518-0.296,1.157,0.011,1.671l1.555,2.605c-0.527,0.614-1.099,1.185-1.711,1.709
			l-2.602-1.566c-0.261-0.157-0.556-0.236-0.85-0.236c-0.283,0-0.567,0.073-0.821,0.219c-0.519,0.298-0.835,0.854-0.826,1.453
			l0.045,3.034c-0.762,0.266-1.543,0.474-2.337,0.622l-1.469-2.656c-0.29-0.524-0.84-0.849-1.439-0.85c-0.001,0-0.002,0-0.003,0
			c-0.597,0-1.148,0.323-1.439,0.845l-1.479,2.652c-0.792-0.15-1.571-0.362-2.334-0.633l0.056-3.033
			c0.011-0.598-0.303-1.156-0.821-1.456c-0.256-0.148-0.541-0.222-0.826-0.222c-0.292,0-0.585,0.078-0.845,0.233l-2.605,1.555
			c-0.614-0.527-1.185-1.099-1.709-1.711l1.566-2.602c0.309-0.513,0.315-1.152,0.017-1.671c-0.294-0.512-0.839-0.827-1.428-0.827
			c-0.008,0-0.016,0-0.024,0l-3.034,0.045c-0.266-0.762-0.474-1.543-0.622-2.337l2.656-1.469c0.524-0.29,0.849-0.84,0.85-1.439
			c0.001-0.598-0.322-1.15-0.845-1.442l-2.652-1.479c0.15-0.792,0.362-1.572,0.633-2.334l3.033,0.056c0.01,0,0.02,0,0.03,0
			c0.587,0,1.13-0.312,1.425-0.821c0.3-0.518,0.296-1.157-0.011-1.671l-1.555-2.605c0.527-0.614,1.099-1.185,1.711-1.709
			l2.602,1.566c0.261,0.157,0.556,0.236,0.85,0.236c0.283,0,0.567-0.073,0.821-0.219c0.519-0.298,0.835-0.854,0.826-1.453
			l-0.045-3.034C393.776,218.996,394.557,218.789,395.351,218.641 M398.229,242.946c3.113,0,6.017-1.672,7.577-4.363
			c2.42-4.174,0.993-9.539-3.181-11.96c-1.333-0.773-2.849-1.182-4.383-1.182c-3.114,0-6.017,1.672-7.577,4.363
			c-2.42,4.174-0.993,9.54,3.181,11.96C395.18,242.538,396.695,242.946,398.229,242.946 M396.238,216.842
			c-1.683,0.195-3.332,0.634-4.89,1.301l0.061,4.179l-3.582-2.157c-1.338,0.992-2.548,2.188-3.581,3.575l2.141,3.585l-4.175-0.077
			c-0.69,1.586-1.128,3.23-1.323,4.884l3.651,2.037l-3.657,2.023c0.195,1.683,0.634,3.332,1.301,4.889l4.179-0.061l-2.157,3.582
			c0.992,1.338,2.188,2.548,3.575,3.581l3.585-2.141l-0.077,4.175c1.586,0.69,3.23,1.127,4.884,1.323l2.037-3.651l2.023,3.657
			c1.683-0.195,3.332-0.634,4.889-1.301l-0.061-4.179l3.582,2.157c1.338-0.992,2.548-2.188,3.581-3.575l-2.141-3.585l4.175,0.077
			c0.69-1.586,1.128-3.23,1.323-4.884l-3.651-2.037l3.657-2.023c-0.195-1.683-0.633-3.332-1.3-4.89l-4.179,0.061l2.157-3.582
			c-0.992-1.338-2.188-2.548-3.575-3.581l-3.585,2.141l0.077-4.175c-1.586-0.69-3.23-1.128-4.884-1.323l-2.037,3.651
			L396.238,216.842L396.238,216.842z M398.229,241.298c-1.21,0-2.435-0.309-3.556-0.959c-3.394-1.968-4.55-6.314-2.582-9.708
			c1.317-2.272,3.702-3.541,6.152-3.541c1.21,0,2.435,0.309,3.556,0.959c3.394,1.968,4.55,6.314,2.582,9.708
			C403.064,240.029,400.679,241.298,398.229,241.298L398.229,241.298z"/>
		<path class="st1" d="M398.24,231.751L398.24,231.751c0.426,0,0.848,0.114,1.221,0.33c1.165,0.676,1.563,2.173,0.888,3.338
			c-0.436,0.751-1.247,1.218-2.117,1.218c-0.426,0-0.849-0.114-1.221-0.33c-0.564-0.327-0.968-0.855-1.135-1.485
			c-0.168-0.631-0.08-1.289,0.247-1.853C396.559,232.218,397.37,231.751,398.24,231.751 M398.24,230.103
			c-1.411,0-2.784,0.731-3.542,2.039c-1.133,1.954-0.467,4.457,1.487,5.59c0.646,0.374,1.351,0.552,2.048,0.552
			c1.411,0,2.784-0.731,3.542-2.039c1.133-1.954,0.467-4.457-1.487-5.59C399.642,230.281,398.936,230.103,398.24,230.103
			L398.24,230.103z"/>
	</g>
	<g>
		<path class="st1" d="M430.121,218.641l1.469,2.656c0.29,0.524,0.84,0.849,1.439,0.85c0.001,0,0.002,0,0.003,0
			c0.597,0,1.148-0.323,1.439-0.845l1.479-2.652c0.792,0.15,1.572,0.362,2.334,0.633l-0.056,3.033
			c-0.011,0.598,0.303,1.156,0.821,1.456c0.256,0.148,0.541,0.222,0.826,0.222c0.292,0,0.585-0.078,0.845-0.233l2.605-1.555
			c0.614,0.527,1.185,1.099,1.709,1.711l-1.566,2.601c-0.309,0.513-0.315,1.152-0.017,1.671c0.294,0.512,0.839,0.827,1.428,0.827
			c0.008,0,0.016,0,0.024,0l3.034-0.045c0.266,0.762,0.474,1.543,0.622,2.337l-2.656,1.469c-0.524,0.29-0.849,0.84-0.85,1.439
			s0.322,1.15,0.845,1.442l2.652,1.48c-0.15,0.792-0.362,1.572-0.633,2.334l-3.033-0.056c-0.01,0-0.02,0-0.03,0
			c-0.587,0-1.13,0.312-1.425,0.821c-0.3,0.518-0.296,1.157,0.011,1.671l1.555,2.605c-0.527,0.614-1.099,1.185-1.711,1.709
			l-2.602-1.566c-0.261-0.157-0.556-0.236-0.85-0.236c-0.283,0-0.567,0.073-0.821,0.219c-0.519,0.298-0.835,0.854-0.826,1.453
			l0.045,3.034c-0.762,0.266-1.543,0.474-2.337,0.622l-1.469-2.656c-0.29-0.524-0.84-0.849-1.439-0.85c-0.001,0-0.002,0-0.003,0
			c-0.597,0-1.148,0.323-1.439,0.845l-1.479,2.652c-0.792-0.15-1.571-0.362-2.334-0.633l0.056-3.033
			c0.011-0.598-0.303-1.156-0.821-1.456c-0.256-0.148-0.541-0.222-0.826-0.222c-0.292,0-0.585,0.078-0.845,0.233l-2.605,1.555
			c-0.614-0.527-1.185-1.099-1.709-1.711l1.567-2.601c0.309-0.513,0.315-1.152,0.017-1.671c-0.294-0.512-0.839-0.827-1.428-0.827
			c-0.008,0-0.016,0-0.024,0l-3.034,0.045c-0.266-0.762-0.474-1.543-0.622-2.337l2.656-1.469c0.524-0.29,0.849-0.84,0.85-1.439
			c0.001-0.598-0.322-1.15-0.845-1.442l-2.652-1.479c0.15-0.792,0.362-1.572,0.633-2.334l3.033,0.056c0.01,0,0.02,0,0.03,0
			c0.587,0,1.13-0.312,1.425-0.821c0.3-0.518,0.296-1.157-0.011-1.671l-1.555-2.605c0.527-0.614,1.099-1.185,1.711-1.709
			l2.602,1.566c0.261,0.157,0.556,0.236,0.85,0.236c0.283,0,0.567-0.073,0.821-0.219c0.519-0.298,0.835-0.854,0.826-1.453
			l-0.045-3.034C428.546,218.996,429.327,218.789,430.121,218.641 M433,242.946c3.113,0,6.017-1.672,7.577-4.363
			c2.42-4.174,0.993-9.539-3.181-11.96c-1.333-0.773-2.849-1.182-4.383-1.182c-3.114,0-6.017,1.672-7.577,4.363
			c-2.42,4.174-0.993,9.54,3.181,11.96C429.95,242.538,431.466,242.946,433,242.946 M431.009,216.842
			c-1.683,0.195-3.332,0.634-4.89,1.301l0.061,4.179l-3.582-2.157c-1.338,0.992-2.548,2.188-3.581,3.575l2.141,3.585l-4.175-0.077
			c-0.69,1.586-1.128,3.23-1.323,4.884l3.651,2.037l-3.657,2.023c0.195,1.683,0.634,3.332,1.301,4.889l4.179-0.061l-2.157,3.582
			c0.992,1.338,2.188,2.548,3.575,3.581l3.585-2.141l-0.077,4.175c1.586,0.69,3.23,1.127,4.884,1.323l2.037-3.651l2.023,3.657
			c1.683-0.195,3.332-0.634,4.889-1.301l-0.061-4.179l3.582,2.157c1.338-0.992,2.548-2.188,3.581-3.575l-2.141-3.585l4.175,0.077
			c0.69-1.586,1.128-3.23,1.323-4.884l-3.651-2.037l3.657-2.023c-0.195-1.683-0.633-3.332-1.3-4.89l-4.179,0.061l2.157-3.582
			c-0.992-1.338-2.188-2.548-3.575-3.581l-3.585,2.141l0.077-4.175c-1.586-0.69-3.23-1.128-4.884-1.323l-2.037,3.651
			L431.009,216.842L431.009,216.842z M433,241.298c-1.21,0-2.435-0.309-3.556-0.959c-3.394-1.968-4.55-6.314-2.582-9.708
			c1.317-2.272,3.702-3.541,6.152-3.541c1.21,0,2.435,0.309,3.556,0.959c3.394,1.968,4.55,6.314,2.582,9.708
			C437.834,240.029,435.45,241.298,433,241.298L433,241.298z"/>
		<path class="st1" d="M433.011,231.751L433.011,231.751c0.426,0,0.848,0.114,1.221,0.33c1.165,0.676,1.563,2.173,0.888,3.338
			c-0.436,0.751-1.247,1.218-2.117,1.218c-0.426,0-0.849-0.114-1.221-0.33c-0.564-0.327-0.968-0.855-1.135-1.485
			c-0.168-0.631-0.08-1.289,0.247-1.853C431.329,232.218,432.14,231.751,433.011,231.751 M433.01,230.103
			c-1.411,0-2.784,0.731-3.542,2.039c-1.133,1.954-0.467,4.457,1.487,5.59c0.646,0.374,1.351,0.552,2.048,0.552
			c1.411,0,2.784-0.731,3.542-2.039c1.133-1.954,0.467-4.457-1.487-5.59C434.412,230.281,433.707,230.103,433.01,230.103
			L433.01,230.103z"/>
	</g>
</g>
<g>
	<path class="st0" d="M443.351,424.749v55.46h-55.46v-55.46H443.351 M443.351,422.552h-55.46c-1.213,0-2.197,0.984-2.197,2.197
		v55.46c0,1.213,0.984,2.197,2.197,2.197h55.46c1.213,0,2.197-0.984,2.197-2.197v-55.46
		C445.548,423.536,444.565,422.552,443.351,422.552L443.351,422.552z"/>
	<path class="st0" d="M444.521,433.592h-57.396c-0.606,0-1.099-0.492-1.099-1.099s0.492-1.099,1.099-1.099h57.396
		c0.606,0,1.099,0.492,1.099,1.099S445.127,433.592,444.521,433.592z"/>
	<path class="st0" d="M393.097,429.106h-1.754c-0.606,0-1.099-0.492-1.099-1.099s0.492-1.099,1.099-1.099h1.754
		c0.606,0,1.099,0.492,1.099,1.099S393.704,429.106,393.097,429.106z"/>
	<path class="st0" d="M398.752,429.106h-1.754c-0.606,0-1.099-0.492-1.099-1.099s0.492-1.099,1.099-1.099h1.754
		c0.606,0,1.099,0.492,1.099,1.099S399.358,429.106,398.752,429.106z"/>
	<path class="st0" d="M404.406,429.106h-1.754c-0.606,0-1.099-0.492-1.099-1.099s0.492-1.099,1.099-1.099h1.754
		c0.606,0,1.099,0.492,1.099,1.099S405.013,429.106,404.406,429.106z"/>
	<path class="st0" d="M402.552,448.777h-9.04c-1.033,0-1.874-0.84-1.874-1.873v-9.04c0-1.033,0.841-1.874,1.874-1.874h9.04
		c1.033,0,1.874,0.841,1.874,1.874v9.04C404.426,447.938,403.585,448.777,402.552,448.777z M393.616,446.801h8.833v-8.834h-8.833
		V446.801z"/>
	<g>
		<path class="st0" d="M402.552,463.291h-9.04c-1.033,0-1.874-0.841-1.874-1.874v-9.039c0-1.033,0.841-1.874,1.874-1.874h9.04
			c1.033,0,1.874,0.841,1.874,1.874v9.039C404.426,462.45,403.585,463.291,402.552,463.291z M393.616,461.314h8.833v-8.834h-8.833
			V461.314z"/>
		<path class="st0" d="M397.616,460.433c-0.253,0-0.499-0.097-0.683-0.273l-2.718-2.599c-0.395-0.378-0.409-1.004-0.031-1.398
			c0.377-0.395,1.004-0.407,1.397-0.031l1.883,1.801l2.89-4.146c0.311-0.447,0.927-0.557,1.376-0.246
			c0.448,0.312,0.558,0.929,0.246,1.377l-3.549,5.094c-0.165,0.236-0.425,0.39-0.713,0.418
			C397.682,460.432,397.649,460.433,397.616,460.433z"/>
	</g>
	<path class="st0" d="M402.552,477.805h-9.04c-1.033,0-1.874-0.841-1.874-1.874v-9.04c0-1.033,0.841-1.873,1.874-1.873h9.04
		c1.033,0,1.874,0.84,1.874,1.873v9.04C404.426,476.964,403.585,477.805,402.552,477.805z M393.616,475.828h8.833v-8.834h-8.833
		V475.828z"/>
	<path class="st0" d="M437.716,443.372h-28.783c-0.546,0-0.989-0.442-0.989-0.988s0.443-0.988,0.989-0.988h28.783
		c0.546,0,0.988,0.442,0.988,0.988S438.262,443.372,437.716,443.372z"/>
	<path class="st0" d="M437.716,457.886h-28.783c-0.546,0-0.989-0.442-0.989-0.988s0.443-0.988,0.989-0.988h28.783
		c0.546,0,0.988,0.442,0.988,0.988S438.262,457.886,437.716,457.886z"/>
	<path class="st0" d="M437.716,472.399h-28.783c-0.546,0-0.989-0.442-0.989-0.988s0.443-0.988,0.989-0.988h28.783
		c0.546,0,0.988,0.442,0.988,0.988S438.262,472.399,437.716,472.399z"/>
</g>
</svg>
